PathFileType	4	(X/Y/Z)	/home/nbianco/projects/addbio/data/HamnerRunning2013/Processed/subject08//results/MarkerData/run400.trc
DataRate	CameraRate	NumFrames	NumMarkers	Units	OrigDataRate	OrigDataStartFrame	OrigNumFrames
100	100	9	42	m	100	122	196
Frame#	Time	C7			CLAV			LACR			LASI			LCAL			LFAradius			LFAsuperior			LFAulna			LLEL			LMEL			LMT5			LPSI			LTB1			LTB2			LTB3			LTH1			LTH2			LTH3			LTOE			LUA1			LUA2			LUA3			RACR			RASI			RCAL			RFAradius			RFAsuperior			RFAulna			RLEL			RMEL			RMT5			RPSI			RTB1			RTB2			RTB3			RTH1			RTH2			RTH3			RTOE			RUA1			RUA2			RUA3		
		X1	Y1	Z1	X2	Y2	Z2	X3	Y3	Z3	X4	Y4	Z4	X5	Y5	Z5	X6	Y6	Z6	X7	Y7	Z7	X8	Y8	Z8	X9	Y9	Z9	X10	Y10	Z10	X11	Y11	Z11	X12	Y12	Z12	X13	Y13	Z13	X14	Y14	Z14	X15	Y15	Z15	X16	Y16	Z16	X17	Y17	Z17	X18	Y18	Z18	X19	Y19	Z19	X20	Y20	Z20	X21	Y21	Z21	X22	Y22	Z22	X23	Y23	Z23	X24	Y24	Z24	X25	Y25	Z25	X26	Y26	Z26	X27	Y27	Z27	X28	Y28	Z28	X29	Y29	Z29	X30	Y30	Z30	X31	Y31	Z31	X32	Y32	Z32	X33	Y33	Z33	X34	Y34	Z34	X35	Y35	Z35	X36	Y36	Z36	X37	Y37	Z37	X38	Y38	Z38	X39	Y39	Z39	X40	Y40	Z40	X41	Y41	Z41	X42	Y42	Z42

123	1.41	0.713784	1.59221	-0.344427	0.831424	1.51527	-0.278479	0.811921	1.55321	-0.47901	0.778608	1.02093	-0.453474	0.144865	0.342057	-0.349112	0.931284	1.33751	-0.441057	0.899228	1.2655	-0.578126	0.953254	1.2725	-0.442229	0.819008	1.26244	-0.673239	0.762645	1.21714	-0.636264	0.170675	0.139512	-0.434917	0.616733	1.12698	-0.369654	0.467844	0.475906	-0.411594	0.364827	0.463891	-0.464724	0.317266	0.335749	-0.396249	0.66722	0.921918	-0.508726	0.680356	0.78889	-0.490632	0.544756	0.699787	-0.472963	0.235716	0.1294	-0.3716	0.803398	1.45448	-0.583044	0.738411	1.37286	-0.597518	0.800282	1.34586	-0.63851	0.732928	1.56182	-0.154821	0.788747	1.05422	-0.212731	0.730152	0.218911	-0.265434	0.696279	1.17424	-0.0808124	0.52583	1.27543	-0.025565	0.64308	1.12721	-0.0721627	0.48634	1.3467	-0.0282212	0.46203	1.33585	-0.10867	0.911744	0.11986	-0.176781	0.615447	1.1267	-0.284844	0.963545	0.501171	-0.228571	0.886986	0.41811	-0.179994	0.888402	0.31468	-0.239192	0.772527	0.939659	-0.140555	0.890876	0.849236	-0.158381	0.882163	0.729229	-0.171874	0.951827	0.147751	-0.257757	0.630296	1.50106	-0.0857131	0.547221	1.45879	-0.129543	0.545771	1.42613	-0.0546272
124	1.42	0.714493	1.59446	-0.342019	0.832426	1.51833	-0.276353	0.812697	1.55698	-0.476176	0.780265	1.02426	-0.4531	0.129386	0.371129	-0.350499	0.930735	1.34228	-0.439162	0.900288	1.2706	-0.577109	0.952477	1.2775	-0.438555	0.820898	1.26738	-0.672752	0.764458	1.22204	-0.636212	0.143084	0.167027	-0.434465	0.61904	1.13051	-0.369869	0.461451	0.482004	-0.413053	0.357819	0.47647	-0.466018	0.301448	0.352649	-0.396443	0.669297	0.925629	-0.508406	0.682922	0.791722	-0.490119	0.54746	0.702485	-0.474937	0.205767	0.152969	-0.369253	0.805687	1.4593	-0.58106	0.740636	1.37781	-0.596705	0.80228	1.35079	-0.637565	0.733935	1.56409	-0.152733	0.788739	1.05549	-0.212298	0.769041	0.19308	-0.264713	0.695938	1.18018	-0.0781417	0.524473	1.2808	-0.0239304	0.642835	1.13299	-0.0703102	0.484734	1.35178	-0.0268757	0.460953	1.34053	-0.107462	0.959277	0.108822	-0.178366	0.616567	1.12991	-0.284847	0.969555	0.497845	-0.228035	0.90384	0.406666	-0.178922	0.915995	0.304086	-0.23874	0.7702	0.937401	-0.139801	0.888926	0.846522	-0.156795	0.876466	0.725397	-0.173633	0.995969	0.142286	-0.25904	0.630669	1.50493	-0.0836807	0.547572	1.46216	-0.128605	0.5449	1.43075	-0.0534303
125	1.43	0.715272	1.59587	-0.339434	0.83333	1.52045	-0.274324	0.813033	1.55971	-0.473768	0.782071	1.02689	-0.452441	0.117287	0.401918	-0.352806	0.930665	1.34362	-0.437311	0.900686	1.2734	-0.576271	0.951922	1.27869	-0.436702	0.821783	1.27134	-0.672334	0.765055	1.22609	-0.636366	0.117047	0.195723	-0.43182	0.62113	1.13277	-0.369424	0.456933	0.487123	-0.41437	0.353148	0.48859	-0.467231	0.287679	0.370268	-0.396462	0.672817	0.927987	-0.508073	0.68674	0.793444	-0.488906	0.551415	0.703858	-0.476491	0.177455	0.178456	-0.364881	0.806901	1.46273	-0.579327	0.74172	1.38143	-0.59588	0.803306	1.35466	-0.636657	0.735133	1.56529	-0.150473	0.788794	1.0559	-0.210632	0.806772	0.17031	-0.264251	0.696727	1.18406	-0.0752005	0.524278	1.28408	-0.0221	0.643595	1.13663	-0.068194	0.484256	1.35476	-0.0253307	0.460856	1.34292	-0.106006	1.00451	0.101421	-0.180927	0.617134	1.1315	-0.283919	0.972694	0.493426	-0.227929	0.918746	0.395575	-0.178244	0.94109	0.294962	-0.238557	0.76878	0.934145	-0.139494	0.887295	0.842432	-0.155295	0.870327	0.719715	-0.17419	1.03687	0.140503	-0.26041	0.631368	1.50692	-0.0815602	0.548278	1.46355	-0.127504	0.544639	1.43342	-0.0521649
126	1.44	0.716116	1.59655	-0.336842	0.834166	1.52134	-0.272538	0.81304	1.56138	-0.471804	0.784286	1.02846	-0.451499	0.109092	0.433571	-0.355289	0.931075	1.34154	-0.435509	0.900323	1.27391	-0.575599	0.951684	1.27608	-0.437185	0.821611	1.27429	-0.67191	0.764395	1.22923	-0.636748	0.0928862	0.225638	-0.42784	0.622989	1.13357	-0.368665	0.454344	0.491093	-0.41515	0.351126	0.499786	-0.4684	0.276299	0.388242	-0.396358	0.677474	0.928808	-0.508034	0.691386	0.794007	-0.487457	0.556254	0.70387	-0.477444	0.151818	0.205582	-0.360338	0.806839	1.46484	-0.577924	0.741479	1.38388	-0.594997	0.803274	1.35751	-0.635712	0.736417	1.5652	-0.148285	0.789401	1.05523	-0.208494	0.841427	0.151429	-0.264091	0.698501	1.18571	-0.0720475	0.525153	1.28509	-0.0200663	0.645415	1.13802	-0.0657398	0.484784	1.35535	-0.0237043	0.461715	1.343	-0.104375	1.04532	0.0978607	-0.184266	0.617921	1.1314	-0.282917	0.973314	0.48832	-0.227958	0.930512	0.385571	-0.177866	0.962708	0.287728	-0.238323	0.768658	0.93084	-0.139808	0.885071	0.836634	-0.154374	0.863322	0.712557	-0.173151	1.07281	0.142344	-0.262172	0.632262	1.50703	-0.0794894	0.549428	1.46323	-0.126292	0.545055	1.43409	-0.0508422
127	1.45	0.716949	1.59655	-0.334413	0.834972	1.52081	-0.271077	0.812826	1.56193	-0.470188	0.787152	1.02887	-0.450601	0.104692	0.46516	-0.35715	0.931818	1.33625	-0.433881	0.899135	1.27221	-0.575204	0.951219	1.27011	-0.439073	0.820321	1.27621	-0.671487	0.76244	1.23145	-0.637312	0.071718	0.257028	-0.424052	0.624694	1.13268	-0.367855	0.45363	0.493797	-0.415223	0.351688	0.509744	-0.469409	0.267519	0.406164	-0.396014	0.682776	0.928101	-0.50826	0.696642	0.793279	-0.486119	0.562011	0.70236	-0.477967	0.12977	0.234129	-0.357089	0.80553	1.46588	-0.576921	0.740065	1.38532	-0.593943	0.802175	1.35937	-0.634773	0.737672	1.56369	-0.146278	0.790801	1.05337	-0.206505	0.870929	0.137137	-0.264717	0.701129	1.18499	-0.0687591	0.526981	1.28366	-0.0178243	0.648321	1.13707	-0.0629594	0.486149	1.35334	-0.0220292	0.463467	1.34073	-0.102581	1.07897	0.0973264	-0.187198	0.619244	1.12974	-0.282545	0.972201	0.483066	-0.227631	0.93827	0.377094	-0.177632	0.980063	0.282534	-0.237731	0.769233	0.927723	-0.14021	0.881088	0.828774	-0.154046	0.854825	0.704172	-0.170939	1.10221	0.146485	-0.264008	0.633286	1.50541	-0.0774083	0.551014	1.46134	-0.124917	0.546165	1.4327	-0.0494055
128	1.46	0.71763	1.59576	-0.332168	0.835724	1.51888	-0.269787	0.812416	1.56133	-0.468765	0.790575	1.02824	-0.450069	0.103902	0.495959	-0.358197	0.932621	1.32804	-0.432622	0.897085	1.26843	-0.575248	0.949831	1.26132	-0.441024	0.817892	1.27709	-0.671128	0.759177	1.23275	-0.637945	0.054946	0.289708	-0.421761	0.626336	1.13003	-0.367153	0.45467	0.495273	-0.414688	0.354572	0.51836	-0.470075	0.261549	0.42369	-0.395314	0.688219	0.925936	-0.508469	0.70234	0.791106	-0.484972	0.568778	0.699198	-0.478319	0.111979	0.263596	-0.355597	0.803278	1.46607	-0.57616	0.737791	1.38589	-0.592606	0.800055	1.36024	-0.634007	0.7388	1.56075	-0.144394	0.792806	1.05036	-0.20499	0.89356	0.127427	-0.266991	0.704681	1.18199	-0.0652812	0.529684	1.27966	-0.0153348	0.652319	1.13382	-0.0599435	0.48831	1.34876	-0.0201336	0.46603	1.33601	-0.10053	1.10297	0.0978701	-0.188275	0.620847	1.12663	-0.282929	0.97011	0.478046	-0.226839	0.942017	0.370042	-0.177638	0.992584	0.27894	-0.236927	0.769609	0.924191	-0.139862	0.875011	0.818851	-0.153746	0.84503	0.6949	-0.168594	1.12393	0.15059	-0.264638	0.634424	1.50224	-0.0751192	0.552869	1.4578	-0.123221	0.547863	1.42916	-0.047714
129	1.47	0.718028	1.59399	-0.329942	0.836367	1.51576	-0.268376	0.811734	1.55965	-0.467464	0.794068	1.02668	-0.449888	0.106741	0.525479	-0.358757	0.933175	1.31717	-0.431938	0.894155	1.26276	-0.575868	0.947221	1.2501	-0.442618	0.814364	1.27691	-0.670885	0.754668	1.23313	-0.638541	0.043492	0.322914	-0.42143	0.627854	1.12581	-0.366759	0.457371	0.495641	-0.413809	0.359553	0.525692	-0.470319	0.258632	0.440571	-0.394351	0.693447	0.922311	-0.50839	0.708299	0.78744	-0.48393	0.576434	0.694342	-0.478544	0.0987968	0.293206	-0.35555	0.800508	1.46545	-0.575308	0.734922	1.38563	-0.591006	0.797005	1.36012	-0.633565	0.739748	1.5565	-0.142483	0.794886	1.04633	-0.203993	0.908459	0.121124	-0.271455	0.709369	1.17693	-0.0615672	0.533277	1.27313	-0.0125183	0.657426	1.12834	-0.0568212	0.491374	1.34186	-0.0177006	0.469324	1.32878	-0.0980385	1.1163	0.0968289	-0.187143	0.622237	1.12224	-0.283726	0.967365	0.473231	-0.226044	0.942458	0.363855	-0.178213	0.999991	0.275893	-0.23646	0.769283	0.919368	-0.138224	0.86769	0.807629	-0.152755	0.835258	0.685395	-0.167225	1.13759	0.152212	-0.262805	0.635699	1.49768	-0.0724063	0.554747	1.45241	-0.121019	0.549975	1.42338	-0.0455851
130	1.48	0.718084	1.59095	-0.327503	0.836877	1.51158	-0.266751	0.810681	1.55698	-0.466284	0.797051	1.02401	-0.449715	0.113337	0.553365	-0.359208	0.933243	1.30381	-0.432004	0.890335	1.25542	-0.577134	0.943556	1.23669	-0.444497	0.809833	1.27567	-0.670751	0.749064	1.2326	-0.639055	0.0375677	0.355628	-0.42276	0.629027	1.12042	-0.36692	0.461725	0.494986	-0.412899	0.366561	0.531878	-0.470262	0.25897	0.456606	-0.393435	0.698328	0.917175	-0.50797	0.7144	0.782416	-0.482916	0.58468	0.687825	-0.478486	0.0904022	0.322172	-0.356522	0.797518	1.46389	-0.574144	0.731565	1.38455	-0.589327	0.793164	1.35898	-0.633404	0.740511	1.551	-0.140419	0.796483	1.04138	-0.203306	0.915675	0.116305	-0.277494	0.715335	1.17	-0.0577663	0.537853	1.26419	-0.00929772	0.663692	1.12075	-0.0537196	0.495451	1.33286	-0.0144949	0.47328	1.31912	-0.0948942	1.11996	0.0917755	-0.185211	0.623112	1.11683	-0.284544	0.963894	0.468132	-0.225753	0.94035	0.357785	-0.17947	1.00245	0.272068	-0.236625	0.768134	0.912901	-0.135439	0.860525	0.796634	-0.15088	0.827102	0.67652	-0.16744	1.14358	0.149545	-0.258962	0.637163	1.49164	-0.0691947	0.556507	1.44492	-0.118188	0.552436	1.41531	-0.0428732
131	1.49	0.717855	1.58645	-0.324723	0.837263	1.50639	-0.265149	0.80922	1.55337	-0.465127	0.799221	1.01996	-0.449213	0.12372	0.579328	-0.359672	0.932672	1.28806	-0.432942	0.885611	1.24665	-0.579026	0.939093	1.22132	-0.447488	0.804415	1.27338	-0.670687	0.742535	1.23119	-0.639494	0.0370344	0.386933	-0.425234	0.62966	1.11418	-0.367723	0.467812	0.493308	-0.41223	0.375695	0.537041	-0.470161	0.262646	0.47156	-0.392836	0.702887	0.910611	-0.507388	0.720663	0.776306	-0.481961	0.593319	0.679782	-0.478134	0.0869303	0.349886	-0.358344	0.794332	1.46125	-0.572724	0.727711	1.38259	-0.587786	0.788686	1.35674	-0.633247	0.741122	1.5442	-0.13817	0.797328	1.03555	-0.202571	0.915537	0.111445	-0.283353	0.722541	1.16132	-0.0541371	0.543545	1.25309	-0.00565681	0.67118	1.11121	-0.0507315	0.500536	1.32173	-0.0105406	0.477864	1.30722	-0.0909405	1.11598	0.0818345	-0.184669	0.623574	1.11072	-0.285239	0.959627	0.461966	-0.225929	0.936105	0.35106	-0.180982	1.00049	0.266297	-0.237135	0.766059	0.905249	-0.132343	0.854681	0.787386	-0.148729	0.821325	0.668866	-0.169055	1.14268	0.141608	-0.255822	0.638892	1.4838	-0.0656495	0.55822	1.43518	-0.1147	0.555408	1.40496	-0.0395337
